<svg width="222" height="222" viewBox="0 0 222 222" fill="none" xmlns="http://www.w3.org/2000/svg">
<style>
    path {
      fill: black;
    }

    @media (prefers-color-scheme: dark) {
      path {
        fill: white;
      }
    }
  </style>
<g clip-path="url(#clip0_2975_207210)">
<path d="M167.529 45.3093L147.607 9.77713C144.225 3.74162 137.838 0 130.915 0H61.8702C27.6986 0 0 27.6655 0 61.7962V145.705H57.0452V70.4693C57.0452 63.0192 63.0946 56.977 70.5537 56.977H150.645C158.097 56.977 164.133 63.0125 164.133 70.4495V150.736C164.133 158.179 158.091 164.208 150.645 164.208H73.9895V221.179H131.557C138.486 221.179 144.88 217.437 148.262 211.401L167.218 177.614C169.607 173.364 174.107 170.726 178.985 170.726H207.69C215.142 170.726 221.179 164.691 221.179 157.254V65.6766C221.179 58.2331 215.136 52.2042 207.69 52.2042H179.303C174.419 52.2042 169.918 49.5665 167.529 45.3093Z"/>
</g>
<defs>
<clipPath id="clip0_2975_207210">
<rect width="222" height="222" fill="white"/>
</clipPath>
</defs>
</svg>
